<?xml version="1.0" encoding="UTF-8"?>
<svg id="Layer_1" xmlns="http://www.w3.org/2000/svg" xmlns:xlink="http://www.w3.org/1999/xlink" version="1.1" viewBox="0 0 1892.1 764.6">
  <defs>
    <style>
      .st0, .st1 {
        fill: none;
      }

      .st2 {
        fill: #3e5eab;
      }

      .st1 {
        stroke: #3e5eab;
        stroke-miterlimit: 10;
        stroke-width: 1.4px;
      }

      .st3 {
        fill: #00aeef;
      }

      .st4 {
        fill: #3ac5f3;
      }

      .st5 {
        clip-path: url(#clippath);
      }
    </style>
    <clipPath id="clippath">
      <rect class="st0" x="-39.3" y="-261.6" width="1984.2" height="1417.3"/>
    </clipPath>
  </defs>
  <g class="st5">
    <path class="st2" d="M605.1,495.3c-49.2,0-79.6-37.4-79.6-95.7s40.9-81.4,67.3-81.4s10,4.8,10,8s-1.5,3.8-1.5,3.8c-34.2,0-52.7,27.9-52.7,69.6s20.6,85.6,56.5,85.6s59.3-38.7,59.3-90.7s-27.4-88.1-66.3-88.1s-73.6,27.1-74.8,58.3c0,0-1.3,2.3-4.8,2-3.3-.3-6.5-3-6.5-9c0-24.4,28.4-63.8,86.6-63.8s88.9,45.5,88.9,101s-31.9,100.5-82.4,100.5"/>
    <path class="st1" d="M605.1,495.3c-49.2,0-79.6-37.4-79.6-95.7s40.9-81.4,67.3-81.4s10,4.8,10,8s-1.5,3.8-1.5,3.8c-34.2,0-52.7,27.9-52.7,69.6s20.6,85.6,56.5,85.6s59.3-38.7,59.3-90.7s-27.4-88.1-66.3-88.1s-73.6,27.1-74.8,58.3c0,0-1.3,2.3-4.8,2-3.3-.3-6.5-3-6.5-9c0-24.4,28.4-63.8,86.6-63.8s88.9,45.5,88.9,101s-31.9,100.5-82.4,100.5Z"/>
    <path class="st2" d="M829.3,431.7c3.3,0,5.3,3.3,5.3,8,0,16.1-14.6,44.2-50.5,44.2s-60-19.1-60-55,22.1-59.3,50-59.3,30.4,15.3,30.4,28.4-6.5,13.8-12.1,13.8-7.5-3-7.5-3c0,0,1.5-3.8,1.5-9.3,0-11.3-7.3-20.1-16.3-20.1-15.6,0-22.1,13.6-22.1,50.7s14.6,43.9,36.2,43.9,41.4-13.6,41.4-40.9c0,0,.3-1.5,3.8-1.5"/>
    <path class="st1" d="M829.3,431.7c3.3,0,5.3,3.3,5.3,8,0,16.1-14.6,44.2-50.5,44.2s-60-19.1-60-55,22.1-59.3,50-59.3,30.4,15.3,30.4,28.4-6.5,13.8-12.1,13.8-7.5-3-7.5-3c0,0,1.5-3.8,1.5-9.3,0-11.3-7.3-20.1-16.3-20.1-15.6,0-22.1,13.6-22.1,50.7s14.6,43.9,36.2,43.9,41.4-13.6,41.4-40.9c0,0,.3-1.5,3.8-1.5Z"/>
    <path class="st2" d="M946.6,426.7c3.3,0,5.3,3.3,5.3,8,0,21.1-14.6,49.2-50.5,49.2s-60-19.1-60-55,22.1-59.3,50-59.3,30.4,15.3,30.4,28.4c0,25.1-23.1,43.7-55.8,43.7,3.3,22.1,16.8,32.4,35.4,32.4s41.4-13.6,41.4-46c0,0,.2-1.5,3.8-1.5M865.2,432.5c16.8-2.3,38.4-10.3,38.4-32.9s-6-20.1-16.3-20.1c-15.6,0-22.1,13.6-22.1,50.7v2.3Z"/>
    <path class="st1" d="M946.6,426.7c3.3,0,5.3,3.3,5.3,8,0,21.1-14.6,49.2-50.5,49.2s-60-19.1-60-55,22.1-59.3,50-59.3,30.4,15.3,30.4,28.4c0,25.1-23.1,43.7-55.8,43.7,3.3,22.1,16.8,32.4,35.4,32.4s41.4-13.6,41.4-46c0,0,.2-1.5,3.8-1.5ZM865.2,432.5c16.8-2.3,38.4-10.3,38.4-32.9s-6-20.1-16.3-20.1c-15.6,0-22.1,13.6-22.1,50.7v2.3Z"/>
    <path class="st2" d="M1098.5,423.7c2,0,4.5,2.5,4.5,13.3,0,27.9-12.6,47-34.9,47s-28.4-8-33.7-22.3c-6,13.1-17.3,22.3-31.9,22.3-27.6,0-43.9-16.6-43.9-57.5s22.1-56.8,50-56.8,20.3,3,24.6,7.3c2.3-5,6.8-7.3,11.6-7.3,7,0,9.5,3.5,9.5,3.5v72.1c0,19.6,6.8,28.9,16.8,28.9s23.6-12.8,23.6-49c0,0,.2-1.5,3.8-1.5M1031.4,440.3v-34.4c0-16.6-10.3-26.4-20.6-26.4-16.6,0-28.4,5-28.4,47s10.8,47.7,23.1,47.7,25.9-11.6,25.9-33.9"/>
    <path class="st1" d="M1098.5,423.7c2,0,4.5,2.5,4.5,13.3,0,27.9-12.6,47-34.9,47s-28.4-8-33.7-22.3c-6,13.1-17.3,22.3-31.9,22.3-27.6,0-43.9-16.6-43.9-57.5s22.1-56.8,50-56.8,20.3,3,24.6,7.3c2.3-5,6.8-7.3,11.6-7.3,7,0,9.5,3.5,9.5,3.5v72.1c0,19.6,6.8,28.9,16.8,28.9s23.6-12.8,23.6-49c0,0,.2-1.5,3.8-1.5ZM1031.4,440.3v-34.4c0-16.6-10.3-26.4-20.6-26.4-16.6,0-28.4,5-28.4,47s10.8,47.7,23.1,47.7,25.9-11.6,25.9-33.9Z"/>
    <path class="st2" d="M1246.4,423.7c2,0,4.5,2.5,4.5,13.3,0,27.9-12.6,47-34.9,47s-37.4-17.6-37.4-46.2v-29.4c0-22.1-6-29.9-15.1-29.9-15.3,0-30.4,12.8-30.4,59v42.9s-2.5,3.5-9.5,3.5-13.1-4.5-13.1-15.3v-95.4s2.5-3.5,9.5-3.5,13.1,4,13.1,18.8c6.8-12.1,17.6-18.8,33.4-18.8s35.7,13.6,35.7,39.9v35.7c0,19.6,6.8,28.9,16.8,28.9s23.6-10.3,23.6-49c0,0,.3-1.5,3.8-1.5"/>
    <path class="st1" d="M1246.4,423.7c2,0,4.5,2.5,4.5,13.3,0,27.9-12.6,47-34.9,47s-37.4-17.6-37.4-46.2v-29.4c0-22.1-6-29.9-15.1-29.9-15.3,0-30.4,12.8-30.4,59v42.9s-2.5,3.5-9.5,3.5-13.1-4.5-13.1-15.3v-95.4s2.5-3.5,9.5-3.5,13.1,4,13.1,18.8c6.8-12.1,17.6-18.8,33.4-18.8s35.7,13.6,35.7,39.9v35.7c0,19.6,6.8,28.9,16.8,28.9s23.6-10.3,23.6-49c0,0,.3-1.5,3.8-1.5Z"/>
    <path class="st2" d="M1595.7,428.2c2,0,6.3,2.3,6.3,13.1,0,27.9-14.3,47.2-36.7,47.2-32.9,0-41.2-25.1-41.2-58.8v-56c0-33.1-7-59.3-29.1-59.3s-44.9,28.9-44.9,69.8v87.4c0,10.8-6.5,15.3-12.3,15.3s-10.3-3.5-10.3-3.5v-109.7c0-33.1-7-59.3-29.1-59.3-32.1,0-45.2,34.9-45.2,81.9v32.1c0,38.9-11.3,67.6-41.2,67.6s-38.7-13.8-38.7-33.4,6.3-19.3,12.6-19.3,9,5.8,9,5.8c0,0-2,5.3-2,14.1,0,17.1,9,22.6,19.1,22.6s17.8-9.5,17.8-42.2v-97.2c0-19.6-8.8-32.1-21.3-32.1s-23.1,7-23.1,37.2,2,9,2,9c0,0-2.3,3-8.8,3s-11.3-3.3-11.3-16.1c0-26.4,17.3-44.7,44.2-44.7s35.7,14.6,39.4,36.2c7.3-21.8,24.4-36.9,47.5-36.9,26.1.3,41.4,16.1,48,40.7,6.5-23.9,24.4-40.7,48.7-40.7,36.2.3,52,30.4,52,71.8v71.1c0,19.6,8.8,32.1,21.3,32.1s23.6-11,23.6-47.2c0,0,.3-1.5,3.8-1.5"/>
    <path class="st1" d="M1595.7,428.2c2,0,6.3,2.3,6.3,13.1,0,27.9-14.3,47.2-36.7,47.2-32.9,0-41.2-25.1-41.2-58.8v-56c0-33.1-7-59.3-29.1-59.3s-44.9,28.9-44.9,69.8v87.4c0,10.8-6.5,15.3-12.3,15.3s-10.3-3.5-10.3-3.5v-109.7c0-33.1-7-59.3-29.1-59.3-32.1,0-45.2,34.9-45.2,81.9v32.1c0,38.9-11.3,67.6-41.2,67.6s-38.7-13.8-38.7-33.4,6.3-19.3,12.6-19.3,9,5.8,9,5.8c0,0-2,5.3-2,14.1,0,17.1,9,22.6,19.1,22.6s17.8-9.5,17.8-42.2v-97.2c0-19.6-8.8-32.1-21.3-32.1s-23.1,7-23.1,37.2,2,9,2,9c0,0-2.3,3-8.8,3s-11.3-3.3-11.3-16.1c0-26.4,17.3-44.7,44.2-44.7s35.7,14.6,39.4,36.2c7.3-21.8,24.4-36.9,47.5-36.9,26.1.3,41.4,16.1,48,40.7,6.5-23.9,24.4-40.7,48.7-40.7,36.2.3,52,30.4,52,71.8v71.1c0,19.6,8.8,32.1,21.3,32.1s23.6-11,23.6-47.2c0,0,.3-1.5,3.8-1.5Z"/>
    <path class="st2" d="M1711.7, <boltAction type="file" filePath="public/logo.svg" continued>426.7c3.3,0,5.3,3.3,5.3,8,0,21.1-14.6,49.2-50.5,49.2s-60-19.1-60-55,22.1-59.3,50-59.3,30.4,15.3,30.4,28.4c0,25.1-23.1,43.7-55.8,43.7,3.3,22.1,16.8,32.4,35.4,32.4s41.4-13.6,41.4-46c0,0,.2-1.5,3.8-1.5M1630.3,432.5c16.8-2.3,38.4-10.3,38.4-32.9s-6-20.1-16.3-20.1c-15.6,0-22.1,13.6-22.1,50.7v2.3Z"/>
    <path class="st1" d="M1711.7,426.7c3.3,0,5.3,3.3,5.3,8,0,21.1-14.6,49.2-50.5,49.2s-60-19.1-60-55,22.1-59.3,50-59.3,30.4,15.3,30.4,28.4c0,25.1-23.1,43.7-55.8,43.7,3.3,22.1,16.8,32.4,35.4,32.4s41.4-13.6,41.4-46c0,0,.2-1.5,3.8-1.5ZM1630.3,432.5c16.8-2.3,38.4-10.3,38.4-32.9s-6-20.1-16.3-20.1c-15.6,0-22.1,13.6-22.1,50.7v2.3Z"/>
    <path class="st2" d="M1773.7,369.7c11.3,0,18.3,2.5,23.1,5.8v-34.2c0-39.7,5.8-60.5,30.4-60.5s20.1,11,20.1,30.9-16.8,43.7-27.9,54.7v78.9c0,19.6,7.3,28.9,18.1,28.9s22.6-9,22.6-41.4,0-4.8-.2-7.5c0,0,.2-1.5,3.8-1.5s4.5,2.5,4.5,13.3c0,27.9-13.8,47-33.7,47s-29.9-8.5-35.2-23.6c-6,13.3-17.3,23.4-31.6,23.4-27.6,0-43.9-17.8-43.9-58.8s22.1-55.2,50-55.2M1796.3,437.8v-32.1c0-17.3-9.8-26.1-20.3-26.1-16.6,0-28.4,3.5-28.4,45.5s10.8,49,23.1,49,25.6-13.6,25.6-36.2M1819.4,354.4c7.8-10,17.1-25.6,17.1-43.4s-3.5-20.3-9-20.3-8,10.8-8,63.8"/>
    <path class="st1" d="M1773.7,369.7c11.3,0,18.3,2.5,23.1,5.8v-34.2c0-39.7,5.8-60.5,30.4-60.5s20.1,11,20.1,30.9-16.8,43.7-27.9,54.7v78.9c0,19.6,7.3,28.9,18.1,28.9s22.6-9,22.6-41.4,0-4.8-.2-7.5c0,0,.2-1.5,3.8-1.5s4.5,2.5,4.5,13.3c0,27.9-13.8,47-33.7,47s-29.9-8.5-35.2-23.6c-6,13.3-17.3,23.4-31.6,23.4-27.6,0-43.9-17.8-43.9-58.8s22.1-55.2,50-55.2ZM1796.3,437.8v-32.1c0-17.3-9.8-26.1-20.3-26.1-16.6,0-28.4,3.5-28.4,45.5s10.8,49,23.1,49,25.6-13.6,25.6-36.2ZM1819.4,354.4c7.8-10,17.1-25.6,17.1-43.4s-3.5-20.3-9-20.3-8,10.8-8,63.8Z"/>
    <path class="st3" d="M1271.6,602.6c0-18.5,15.3-29,35.9-29s34.1,12.7,34.1,22.8-3.6,11.5-8.2,11.5-7.2-2.9-7.2-2.9c0,0,1.5-1.9,1.5-7.3,0-11.8-12.3-17.8-22.9-17.8s-20.4,8-20.4,17.2c0,34.4,59.5,15.2,59.5,59s-18.7,32.2-37.8,32.2-42.5-12.5-42.5-29.9,3.5-12.8,8.6-12.8,7,2.6,7,2.6c0,0-1.3,3.6-1.3,8.9,0,12.5,10.9,24.8,29.3,24.8s23.2-10.1,23.2-22.6c0-34.7-59-18-59-56.6"/>
    <path class="st3" d="M1460.9,647c1.2,0,2.6,1.5,2.6,7.7,0,16.2-7.3,27.3-20.3,27.3s-16.5-4.7-19.6-13c-3.5,7.6-10.1,13-18.5,13-16.1,0-25.5-9.6-25.5-33.4s12.8-33,29-33,11.8,1.8,14.3,4.2c1.3-2.9,3.9-4.2,6.7-4.2,4.1,0,5.5,2,5.5,2v41.9c0,11.4,3.9,16.8,9.8,16.8s13.7-7.4,13.7-28.5c0,0,.1-.9,2.2-.9M1421.9,656.6v-20c0-9.6-6-15.3-12-15.3-9.6,0-16.5,2.9-16.5,27.3s6.3,27.7,13.4,27.7,15-6.7,15-19.7"/>
    <path class="st3" d="M1495.7,586.4c4.8,0,8.8,3.9,8.8,8.8s-3.9,8.6-8.8,8.6-8.6-3.8-8.6-8.6,3.8-8.8,8.6-8.8M1531.5,647c1.2,0,2.6,1.5,2.6,7.7,0,14.7-8.9,27.3-21.7,27.3s-23.3-10.2-23.3-26.9v-30.6c0-6.3,3.6-8.9,7.6-8.9s5.5,2,5.5,2v41.9c0,11.4,4.8,16.8,12,16.8s15.2-6,15.2-28.5c0,0,.3-.9,2.2-.9"/>
    <path class="st3" d="M1602.1,647c1.2,0,2.6,1.5,2.6,7.7,0,14.7-8.9,27.3-21.7,27.3s-23.5-10.2-23.5-26.9v-54.9c0-23.8,3.9-36.3,17.8-36.3s14.4,6.3,14.4,19.6c0,22.3-11.8,32.7-19,36.9v39.1c0,11.4,4.8,16.8,12,16.8s15.2-6,15.2-28.5c0,0,.3-.9,2.2-.9M1585.5,583.6c0-9.9-2.9-14-7-14s-5.7,3.8-5.7,44.7c5.4-3.9,12.7-12.4,12.7-30.6"/>
    <path class="st3" d="M1636.7,586.4c4.8,0,8.8,3.9,8.8,8.8s-3.9,8.6-8.8,8.6-8.6-3.8-8.6-8.6,3.8-8.8,8.6-8.8M1672.5,647c1.2,0,2.6,1.5,2.6,7.7,0,14.7-8.9,27.3-21.7,27.3s-23.3-10.2-23.3-26.9v-30.6c0-6.3,3.6-8.9,7.6-8.9s5.5,2,5.5,2v41.9c0,11.4,4.8,16.8,12,16.8s15.2-6,15.2-28.5c0,0,.3-.9,2.2-.9"/>
    <path class="st3" d="M1779.1,647c1.2,0,2.6,1.5,2.6,7.7,0,16.2-7.3,27.3-20.3,27.3s-21.7-10.2-21.7-26.9v-17.1c0-12.8-3.5-17.4-8.8-17.4-8.9,0-17.7,7.4-17.7,34.3v25s-1.5,2-5.5,2-7.6-2.6-7.6-8.9v-55.5s1.5-2,5.5-2,7.6,2.3,7.6,10.9c3.9-7,10.2-10.9,19.4-10.9s20.7,7.9,20.7,23.2v20.7c0,11.4,3.9,16.8,9.8,16.8s13.7-6,13.7-28.5c0,0,.1-.9,2.2-.9"/>
    <path class="st3" d="M1836,615.6c7.4,0,11.8,1.8,14.3,4.2,1.3-2.9,3.9-4.2,6.7-4.2,4.1,0,5.5,2,5.5,2v74.1c1.8-.1,3.5-.1,5.4-.1,3.4,0,3.9,2.2,3.9,3.2s-.9,2.2-.9,2.2c-2.8,0-5.5,0-8.5.1v7.6c-.1,20.1-10.1,32.1-25,32.1s-17.1-3.9-17.1-16.6,12.8-23.6,28.9-26.9v-21.5c-3.6,6-9.6,10.1-16.9,10.1-16.1,0-25.5-9.6-25.5-33.4s12.8-33,29-33M1849.4,640.7c0-15.2-6.4-19.4-12.1-19.4-9.6,0-16.5,2.9-16.5,27.3s6.3,27.7,13.4,27.7,15.2-5.5,15.2-25.2v-10.4ZM1849.4,698.9c-11.8,2.6-21.5,8.5-21.5,21.7s4.7,10.5,9.3,10.5c7.4,0,12.1-5.1,12.1-26.7v-5.5Z"/>
    <path class="st3" d="M342.3,65.7v-28.9c-.1,0-5.8,10.3-15.2,28.9h15.2Z"/>
    <path class="st3" d="M306,109.2h36.4v-39.1h-17.6c-5.4,10.7-11.7,23.8-18.9,39.1"/>
    <path class="st3" d="M277,174.1h65.7l-.2-58.3h-39.5c-8,17.1-16.7,36.7-26,58.3"/>
    <path class="st3" d="M235.8,278.3h107.3l-.4-96.2h-69.1c-12.2,28.9-25.1,61.2-37.8,96.2"/>
    <path class="st3" d="M184.9,441.3h158.8l-.6-154.1h-110.5c-17,47.4-33.6,99.5-47.7,154.1"/>
    <path class="st3" d="M157.4,571.8c6-2.1,12-3.9,18-5.4,53.3-13,110.6-1.4,168.8,16.9l-.5-133.2h-161.1c-10,39.5-18.6,80.3-25.2,121.7"/>
    <path class="st4" d="M235.8,278.3h34.9l-7.5-48.1-2.1-17.9c-12.2,28.9-12.6,31-25.3,66"/>
    <path class="st4" d="M184.9,441.3h125l-36.3-154.1h-41c-17,47.4-33.6,99.5-47.7,154.1"/>
    <path class="st4" d="M157.4,571.8c6-2.1,12-3.9,18-5.4,53.3-13,110.6-1.4,168.8,16.9l-31.5-133.2h-130.1c-10,39.5-18.6,80.3-25.2,121.7"/>
    <path class="st2" d="M351,43.7l.2,22.1h7.1c-3.9-12.8-6.4-20.6-7.2-22.1"/>
    <path class="st2" d="M359.5,70.2h-8.4l.3,39.1h19.4c-4.4-15.4-8.3-28.6-11.4-39.1"/>
    <path class="st2" d="M372.8,115.8h-21.3l.5,58.3h37.3c-6.1-21.5-11.6-41.1-16.6-58.3"/>
    <path class="st2" d="M391.6,182.1h-39.5l.8,96.2h65.6c-9.5-34.1-18.6-66.7-26.9-96.2"/>
    <path class="st2" d="M421,287.1h-68l1.3,154.1h109.4c-14-50.8-28.7-103.9-42.6-154.1"/>
    <path class="st2" d="M355.5,587c54.5,17.9,109.7,40.9,163.1,54.3-12.8-46.7-31.8-116.1-52.5-191.2h-111.7l1.1,136.9Z"/>
    <path class="st3" d="M33.8,694.5c194.7-167.3,476.6,199.7,654-33.8-189.7,161.1-471.2-204-654,33.8"/>
    <path class="st3" d="M63.9,649c194.7-167.3,476.6,199.7,654-33.8-189.7,161.1-471.2-204-654,33.8"/>
    <path class="st3" d="M1237,570.5c229.3-110.9,431.4,68.8,622.4-45.5-195.6,82-384.3-108.8-622.4,45.5"/>
  </g>
</svg>